<mxfile host="app.diagrams.net" agent="Mozilla/5.0 (Windows NT 10.0; Win64; x64) AppleWebKit/537.36 (KHTML, like Gecko) Chrome/130.0.0.0 Safari/537.36" version="24.8.4">
  <diagram name="Lapa-1" id="WrrrVxFhbCTKKEKzmqyU">
    <mxGraphModel dx="1434" dy="746" grid="1" gridSize="10" guides="1" tooltips="1" connect="1" arrows="1" fold="1" page="1" pageScale="1" pageWidth="827" pageHeight="1169" math="0" shadow="0">
      <root>
        <mxCell id="0" />
        <mxCell id="1" parent="0" />
        <mxCell id="2gIOFMHZoLpzfdba-x7K-7" style="edgeStyle=orthogonalEdgeStyle;rounded=0;orthogonalLoop=1;jettySize=auto;html=1;entryX=0.5;entryY=0;entryDx=0;entryDy=0;endArrow=none;endFill=0;" edge="1" parent="1" source="2gIOFMHZoLpzfdba-x7K-1" target="2gIOFMHZoLpzfdba-x7K-3">
          <mxGeometry relative="1" as="geometry" />
        </mxCell>
        <mxCell id="2gIOFMHZoLpzfdba-x7K-8" style="edgeStyle=orthogonalEdgeStyle;rounded=0;orthogonalLoop=1;jettySize=auto;html=1;entryX=0.5;entryY=1;entryDx=0;entryDy=0;endArrow=none;endFill=0;" edge="1" parent="1" source="2gIOFMHZoLpzfdba-x7K-1" target="2gIOFMHZoLpzfdba-x7K-4">
          <mxGeometry relative="1" as="geometry" />
        </mxCell>
        <mxCell id="2gIOFMHZoLpzfdba-x7K-1" value="spots" style="rounded=0;whiteSpace=wrap;html=1;" vertex="1" parent="1">
          <mxGeometry x="170" y="230" width="120" height="60" as="geometry" />
        </mxCell>
        <mxCell id="2gIOFMHZoLpzfdba-x7K-6" style="edgeStyle=orthogonalEdgeStyle;rounded=0;orthogonalLoop=1;jettySize=auto;html=1;endArrow=none;endFill=0;" edge="1" parent="1" source="2gIOFMHZoLpzfdba-x7K-2" target="2gIOFMHZoLpzfdba-x7K-1">
          <mxGeometry relative="1" as="geometry" />
        </mxCell>
        <mxCell id="2gIOFMHZoLpzfdba-x7K-2" value="users" style="rounded=0;whiteSpace=wrap;html=1;" vertex="1" parent="1">
          <mxGeometry x="370" y="230" width="120" height="60" as="geometry" />
        </mxCell>
        <mxCell id="2gIOFMHZoLpzfdba-x7K-9" style="rounded=0;orthogonalLoop=1;jettySize=auto;html=1;entryX=0.5;entryY=0;entryDx=0;entryDy=0;strokeColor=default;endArrow=none;endFill=0;" edge="1" parent="1" source="2gIOFMHZoLpzfdba-x7K-3" target="2gIOFMHZoLpzfdba-x7K-5">
          <mxGeometry relative="1" as="geometry" />
        </mxCell>
        <mxCell id="2gIOFMHZoLpzfdba-x7K-3" value="comments" style="rounded=0;whiteSpace=wrap;html=1;" vertex="1" parent="1">
          <mxGeometry x="170" y="340" width="120" height="60" as="geometry" />
        </mxCell>
        <mxCell id="2gIOFMHZoLpzfdba-x7K-4" value="likes" style="rounded=0;whiteSpace=wrap;html=1;" vertex="1" parent="1">
          <mxGeometry x="170" y="120" width="120" height="60" as="geometry" />
        </mxCell>
        <mxCell id="2gIOFMHZoLpzfdba-x7K-5" value="comment_likes" style="rounded=0;whiteSpace=wrap;html=1;" vertex="1" parent="1">
          <mxGeometry x="170" y="450" width="120" height="60" as="geometry" />
        </mxCell>
        <mxCell id="2gIOFMHZoLpzfdba-x7K-12" style="edgeStyle=orthogonalEdgeStyle;rounded=0;orthogonalLoop=1;jettySize=auto;html=1;entryX=0;entryY=0.5;entryDx=0;entryDy=0;endArrow=none;endFill=0;" edge="1" parent="1" source="2gIOFMHZoLpzfdba-x7K-10" target="2gIOFMHZoLpzfdba-x7K-1">
          <mxGeometry relative="1" as="geometry" />
        </mxCell>
        <mxCell id="2gIOFMHZoLpzfdba-x7K-10" value="spot_images" style="rounded=0;whiteSpace=wrap;html=1;" vertex="1" parent="1">
          <mxGeometry x="10" y="230" width="120" height="60" as="geometry" />
        </mxCell>
      </root>
    </mxGraphModel>
  </diagram>
</mxfile>
